<svg width="14" height="14" viewBox="0 0 14 14" fill="none" xmlns="http://www.w3.org/2000/svg">
<path d="M4 1.16977L4.51885 0.314903L4 -4.88758e-06L3.48115 0.314904L4 1.16977ZM7 2.99058L6.48115 3.84544L7 4.16035L7.51885 3.84544L7 2.99058ZM1 2.99058L0.481151 2.13571L0 2.42774V2.99058H1ZM1 6.89231H0V7.35384L0.351203 7.65327L1 6.89231ZM7 12.0079L6.3512 12.7689L7 13.322L7.6488 12.7689L7 12.0079ZM13 6.89231L13.6488 7.65327L14 7.35384V6.89231H13ZM13 2.99058H14V2.42774L13.5188 2.13571L13 2.99058ZM10 1.16977L10.5189 0.314904L10 -4.88758e-06L9.48115 0.314903L10 1.16977ZM4 1.16977L3.48115 2.02464L6.48115 3.84544L7 2.99058L7.51885 2.13571L4.51885 0.314903L4 1.16977ZM1 2.99058L1.51885 3.84544L4.51885 2.02464L4 1.16977L3.48115 0.314904L0.481151 2.13571L1 2.99058ZM1 6.89231H2V2.99058H1H0V6.89231H1ZM7 12.0079L7.6488 11.247L1.6488 6.13135L1 6.89231L0.351203 7.65327L6.3512 12.7689L7 12.0079ZM7 12.0079L7.6488 12.7689L13.6488 7.65327L13 6.89231L12.3512 6.13135L6.3512 11.247L7 12.0079ZM13 6.89231H14V2.99058H13H12V6.89231H13ZM13 2.99058L13.5188 2.13571L10.5189 0.314904L10 1.16977L9.48115 2.02463L12.4812 3.84544L13 2.99058ZM10 1.16977L9.48115 0.314903L6.48115 2.13571L7 2.99058L7.51885 3.84544L10.5189 2.02464L10 1.16977Z" fill="white"/>
</svg>
