<svg width="26" height="25" viewBox="0 0 26 25" fill="none" xmlns="http://www.w3.org/2000/svg">
<path d="M7 1.16977L7.51885 0.314903L7 -4.88758e-06L6.48115 0.314904L7 1.16977ZM13 4.81139L12.4812 5.66625L13 5.98116L13.5188 5.66625L13 4.81139ZM1 4.81139L0.481151 3.95652L0 4.24855V4.81139H1ZM1 12.6149H0V13.0764L0.351203 13.3758L1 12.6149ZM13 22.8461L12.3512 23.607L13 24.1602L13.6488 23.607L13 22.8461ZM25 12.6149L25.6488 13.3758L26 13.0764V12.6149H25ZM25 4.81139H26V4.24855L25.5188 3.95652L25 4.81139ZM19 1.16977L19.5189 0.314904L19 -4.88758e-06L18.4812 0.314903L19 1.16977ZM6.48115 2.02464L12.4812 5.66625L13.5188 3.95652L7.51885 0.314903L6.48115 2.02464ZM1.51885 5.66625L7.51885 2.02464L6.48115 0.314904L0.481151 3.95652L1.51885 5.66625ZM2 12.6149V4.81139H0V12.6149H2ZM13.6488 22.0851L1.6488 11.8539L0.351203 13.3758L12.3512 23.607L13.6488 22.0851ZM13.6488 23.607L25.6488 13.3758L24.3512 11.8539L12.3512 22.0851L13.6488 23.607ZM26 12.6149V4.81139H24V12.6149H26ZM25.5188 3.95652L19.5189 0.314904L18.4812 2.02463L24.4812 5.66625L25.5188 3.95652ZM18.4812 0.314903L12.4812 3.95652L13.5188 5.66625L19.5189 2.02464L18.4812 0.314903Z" fill="white"/>
</svg>
